<mxfile host="app.diagrams.net" modified="2023-09-09T19:07:12.467Z" agent="Mozilla/5.0 (X11; Linux x86_64; rv:109.0) Gecko/20100101 Firefox/117.0" version="21.7.4" etag="FxRru7Tj2Ajt4Nmg8l_7" type="github">
  <diagram name="Page-1" id="ukb7V9o6rLV13IeoMcB7">
    <mxGraphModel>
      <root>
        <mxCell id="0" />
        <mxCell id="1" parent="0" />
      </root>
    </mxGraphModel>
  </diagram>
</mxfile>
